<svg width="67" height="71" viewBox="0 0 67 71" fill="none" xmlns="http://www.w3.org/2000/svg">
<g clip-path="url(#clip0)">
<path d="M32.0658 20.4068C34.9853 17.2037 44.0242 19.7302 49.7386 24.2212C50.4822 24.7785 60.9226 33.4533 57.9273 44.7683C55.7903 52.7986 47.4387 60.0312 41.8363 58.6086C30.0522 55.4171 37.2385 16.0312 25.1642 12.8261C19.4535 11.2388 10.9473 18.3625 8.78659 26.5806C5.81393 38.0272 16.4423 46.7253 16.9753 47.1276C22.8837 51.8164 32.2757 54.2577 34.9347 51.028C36.9079 48.7391 34.5166 44.6932 31.7125 27.6492C31.1183 23.7307 30.8772 21.8177 32.0658 20.4068Z" stroke="white" stroke-width="3" stroke-miterlimit="10"/>
</g>
<defs>
<clipPath id="clip0">
<rect x="66.4824" y="51.2617" width="48" height="55" transform="rotate(156.166 66.4824 51.2617)" fill="white"/>
</clipPath>
</defs>
</svg>
