<svg width="1210" height="224" viewBox="0 0 1210 224" fill="none" xmlns="http://www.w3.org/2000/svg">
<rect x="1176" y="16.8984" width="23.8982" height="23.9008" rx="11.9491" transform="rotate(-45 1176 16.8984)" fill="black"/>
<rect x="1176" y="54.8984" width="23.8982" height="23.9008" rx="11.9491" transform="rotate(-45 1176 54.8984)" fill="black"/>
<rect x="1176" y="92.8984" width="23.8982" height="23.9008" rx="11.9491" transform="rotate(-45 1176 92.8984)" fill="black"/>
<rect x="1176" y="130.898" width="23.8982" height="23.9008" rx="11.9491" transform="rotate(-45 1176 130.898)" fill="black"/>
<rect x="1176" y="206.898" width="23.8982" height="23.9008" rx="11.9491" transform="rotate(-45 1176 206.898)" fill="black"/>
<rect x="1176" y="168.898" width="23.8982" height="23.9008" rx="11.9491" transform="rotate(-45 1176 168.898)" fill="black"/>
<rect x="756" y="16.8984" width="23.8982" height="23.9008" rx="11.9491" transform="rotate(-45 756 16.8984)" fill="black"/>
<rect x="756" y="54.8984" width="23.8982" height="23.9008" rx="11.9491" transform="rotate(-45 756 54.8984)" fill="black"/>
<rect x="756" y="92.8984" width="23.8982" height="23.9008" rx="11.9491" transform="rotate(-45 756 92.8984)" fill="black"/>
<rect x="756" y="130.898" width="23.8982" height="23.9008" rx="11.9491" transform="rotate(-45 756 130.898)" fill="black"/>
<rect x="756" y="206.898" width="23.8982" height="23.9008" rx="11.9491" transform="rotate(-45 756 206.898)" fill="black"/>
<rect x="756" y="168.898" width="23.8982" height="23.9008" rx="11.9491" transform="rotate(-45 756 168.898)" fill="black"/>
<rect x="336" y="16.8984" width="23.8982" height="23.9008" rx="11.9491" transform="rotate(-45 336 16.8984)" fill="black"/>
<rect x="336" y="54.8984" width="23.8982" height="23.9008" rx="11.9491" transform="rotate(-45 336 54.8984)" fill="black"/>
<rect x="336" y="92.8984" width="23.8982" height="23.9008" rx="11.9491" transform="rotate(-45 336 92.8984)" fill="black"/>
<rect x="336" y="130.898" width="23.8982" height="23.9008" rx="11.9491" transform="rotate(-45 336 130.898)" fill="black"/>
<rect x="336" y="206.898" width="23.8982" height="23.9008" rx="11.9491" transform="rotate(-45 336 206.898)" fill="black"/>
<rect x="336" y="168.898" width="23.8982" height="23.9008" rx="11.9491" transform="rotate(-45 336 168.898)" fill="black"/>
<rect x="1092" y="16.8984" width="23.8982" height="23.9008" rx="11.9491" transform="rotate(-45 1092 16.8984)" fill="black"/>
<rect x="1092" y="54.8984" width="23.8982" height="23.9008" rx="11.9491" transform="rotate(-45 1092 54.8984)" fill="black"/>
<rect x="1092" y="92.8984" width="23.8982" height="23.9008" rx="11.9491" transform="rotate(-45 1092 92.8984)" fill="black"/>
<rect x="1092" y="130.898" width="23.8982" height="23.9008" rx="11.9491" transform="rotate(-45 1092 130.898)" fill="black"/>
<rect x="1092" y="206.898" width="23.8982" height="23.9008" rx="11.9491" transform="rotate(-45 1092 206.898)" fill="black"/>
<rect x="1092" y="168.898" width="23.8982" height="23.9008" rx="11.9491" transform="rotate(-45 1092 168.898)" fill="black"/>
<rect x="672" y="16.8984" width="23.8982" height="23.9008" rx="11.9491" transform="rotate(-45 672 16.8984)" fill="black"/>
<rect x="672" y="54.8984" width="23.8982" height="23.9008" rx="11.9491" transform="rotate(-45 672 54.8984)" fill="black"/>
<rect x="672" y="92.8984" width="23.8982" height="23.9008" rx="11.9491" transform="rotate(-45 672 92.8984)" fill="black"/>
<rect x="672" y="130.898" width="23.8982" height="23.9008" rx="11.9491" transform="rotate(-45 672 130.898)" fill="black"/>
<rect x="672" y="206.898" width="23.8982" height="23.9008" rx="11.9491" transform="rotate(-45 672 206.898)" fill="black"/>
<rect x="672" y="168.898" width="23.8982" height="23.9008" rx="11.9491" transform="rotate(-45 672 168.898)" fill="black"/>
<rect x="252" y="16.8984" width="23.8982" height="23.9008" rx="11.9491" transform="rotate(-45 252 16.8984)" fill="black"/>
<rect x="252" y="54.8984" width="23.8982" height="23.9008" rx="11.9491" transform="rotate(-45 252 54.8984)" fill="black"/>
<rect x="252" y="92.8984" width="23.8982" height="23.9008" rx="11.9491" transform="rotate(-45 252 92.8984)" fill="black"/>
<rect x="252" y="130.898" width="23.8982" height="23.9008" rx="11.9491" transform="rotate(-45 252 130.898)" fill="black"/>
<rect x="252" y="206.898" width="23.8982" height="23.9008" rx="11.9491" transform="rotate(-45 252 206.898)" fill="black"/>
<rect x="252" y="168.898" width="23.8982" height="23.9008" rx="11.9491" transform="rotate(-45 252 168.898)" fill="black"/>
<rect x="1008" y="16.8984" width="23.8982" height="23.9008" rx="11.9491" transform="rotate(-45 1008 16.8984)" fill="black"/>
<rect x="1008" y="54.8984" width="23.8982" height="23.9008" rx="11.9491" transform="rotate(-45 1008 54.8984)" fill="black"/>
<rect x="1008" y="92.8984" width="23.8982" height="23.9008" rx="11.9491" transform="rotate(-45 1008 92.8984)" fill="black"/>
<rect x="1008" y="130.898" width="23.8982" height="23.9008" rx="11.9491" transform="rotate(-45 1008 130.898)" fill="black"/>
<rect x="1008" y="206.898" width="23.8982" height="23.9008" rx="11.9491" transform="rotate(-45 1008 206.898)" fill="black"/>
<rect x="1008" y="168.898" width="23.8982" height="23.9008" rx="11.9491" transform="rotate(-45 1008 168.898)" fill="black"/>
<rect x="588" y="16.8984" width="23.8982" height="23.9008" rx="11.9491" transform="rotate(-45 588 16.8984)" fill="black"/>
<rect x="588" y="54.8984" width="23.8982" height="23.9008" rx="11.9491" transform="rotate(-45 588 54.8984)" fill="black"/>
<rect x="588" y="92.8984" width="23.8982" height="23.9008" rx="11.9491" transform="rotate(-45 588 92.8984)" fill="black"/>
<rect x="588" y="130.898" width="23.8982" height="23.9008" rx="11.9491" transform="rotate(-45 588 130.898)" fill="black"/>
<rect x="588" y="206.898" width="23.8982" height="23.9008" rx="11.9491" transform="rotate(-45 588 206.898)" fill="black"/>
<rect x="588" y="168.898" width="23.8982" height="23.9008" rx="11.9491" transform="rotate(-45 588 168.898)" fill="black"/>
<rect x="168" y="16.8984" width="23.8982" height="23.9008" rx="11.9491" transform="rotate(-45 168 16.8984)" fill="black"/>
<rect x="168" y="54.8984" width="23.8982" height="23.9008" rx="11.9491" transform="rotate(-45 168 54.8984)" fill="black"/>
<rect x="168" y="92.8984" width="23.8982" height="23.9008" rx="11.9491" transform="rotate(-45 168 92.8984)" fill="black"/>
<rect x="168" y="130.898" width="23.8982" height="23.9008" rx="11.9491" transform="rotate(-45 168 130.898)" fill="black"/>
<rect x="168" y="206.898" width="23.8982" height="23.9008" rx="11.9491" transform="rotate(-45 168 206.898)" fill="black"/>
<rect x="168" y="168.898" width="23.8982" height="23.9008" rx="11.9491" transform="rotate(-45 168 168.898)" fill="black"/>
<rect x="924" y="16.8984" width="23.8982" height="23.9008" rx="11.9491" transform="rotate(-45 924 16.8984)" fill="black"/>
<rect x="924" y="54.8984" width="23.8982" height="23.9008" rx="11.9491" transform="rotate(-45 924 54.8984)" fill="black"/>
<rect x="924" y="92.8984" width="23.8982" height="23.9008" rx="11.9491" transform="rotate(-45 924 92.8984)" fill="black"/>
<rect x="924" y="130.898" width="23.8982" height="23.9008" rx="11.9491" transform="rotate(-45 924 130.898)" fill="black"/>
<rect x="924" y="206.898" width="23.8982" height="23.9008" rx="11.9491" transform="rotate(-45 924 206.898)" fill="black"/>
<rect x="924" y="168.898" width="23.8982" height="23.9008" rx="11.9491" transform="rotate(-45 924 168.898)" fill="black"/>
<rect x="504" y="16.8984" width="23.8982" height="23.9008" rx="11.9491" transform="rotate(-45 504 16.8984)" fill="black"/>
<rect x="504" y="54.8984" width="23.8982" height="23.9008" rx="11.9491" transform="rotate(-45 504 54.8984)" fill="black"/>
<rect x="504" y="92.8984" width="23.8982" height="23.9008" rx="11.9491" transform="rotate(-45 504 92.8984)" fill="black"/>
<rect x="504" y="130.898" width="23.8982" height="23.9008" rx="11.9491" transform="rotate(-45 504 130.898)" fill="black"/>
<rect x="504" y="206.898" width="23.8982" height="23.9008" rx="11.9491" transform="rotate(-45 504 206.898)" fill="black"/>
<rect x="504" y="168.898" width="23.8982" height="23.9008" rx="11.9491" transform="rotate(-45 504 168.898)" fill="black"/>
<rect x="84" y="16.8984" width="23.8982" height="23.9008" rx="11.9491" transform="rotate(-45 84 16.8984)" fill="black"/>
<rect x="84" y="54.8984" width="23.8982" height="23.9008" rx="11.9491" transform="rotate(-45 84 54.8984)" fill="black"/>
<rect x="84" y="92.8984" width="23.8982" height="23.9008" rx="11.9491" transform="rotate(-45 84 92.8984)" fill="black"/>
<rect x="84" y="130.898" width="23.8982" height="23.9008" rx="11.9491" transform="rotate(-45 84 130.898)" fill="black"/>
<rect x="84" y="206.898" width="23.8982" height="23.9008" rx="11.9491" transform="rotate(-45 84 206.898)" fill="black"/>
<rect x="84" y="168.898" width="23.8982" height="23.9008" rx="11.9491" transform="rotate(-45 84 168.898)" fill="black"/>
<rect x="840" y="16.8984" width="23.8982" height="23.9008" rx="11.9491" transform="rotate(-45 840 16.8984)" fill="black"/>
<rect x="840" y="54.8984" width="23.8982" height="23.9008" rx="11.9491" transform="rotate(-45 840 54.8984)" fill="black"/>
<rect x="840" y="92.8984" width="23.8982" height="23.9008" rx="11.9491" transform="rotate(-45 840 92.8984)" fill="black"/>
<rect x="840" y="130.898" width="23.8982" height="23.9008" rx="11.9491" transform="rotate(-45 840 130.898)" fill="black"/>
<rect x="840" y="206.898" width="23.8982" height="23.9008" rx="11.9491" transform="rotate(-45 840 206.898)" fill="black"/>
<rect x="840" y="168.898" width="23.8982" height="23.9008" rx="11.9491" transform="rotate(-45 840 168.898)" fill="black"/>
<rect x="420" y="16.8984" width="23.8982" height="23.9008" rx="11.9491" transform="rotate(-45 420 16.8984)" fill="black"/>
<rect x="420" y="54.8984" width="23.8982" height="23.9008" rx="11.9491" transform="rotate(-45 420 54.8984)" fill="black"/>
<rect x="420" y="92.8984" width="23.8982" height="23.9008" rx="11.9491" transform="rotate(-45 420 92.8984)" fill="black"/>
<rect x="420" y="130.898" width="23.8982" height="23.9008" rx="11.9491" transform="rotate(-45 420 130.898)" fill="black"/>
<rect x="420" y="206.898" width="23.8982" height="23.9008" rx="11.9491" transform="rotate(-45 420 206.898)" fill="black"/>
<rect x="420" y="168.898" width="23.8982" height="23.9008" rx="11.9491" transform="rotate(-45 420 168.898)" fill="black"/>
<rect y="16.8984" width="23.8982" height="23.9008" rx="11.9491" transform="rotate(-45 0 16.8984)" fill="black"/>
<rect y="54.8984" width="23.8982" height="23.9008" rx="11.9491" transform="rotate(-45 0 54.8984)" fill="black"/>
<rect y="92.8984" width="23.8982" height="23.9008" rx="11.9491" transform="rotate(-45 0 92.8984)" fill="black"/>
<rect y="130.898" width="23.8982" height="23.9008" rx="11.9491" transform="rotate(-45 0 130.898)" fill="black"/>
<rect y="206.898" width="23.8982" height="23.9008" rx="11.9491" transform="rotate(-45 0 206.898)" fill="black"/>
<rect y="168.898" width="23.8982" height="23.9008" rx="11.9491" transform="rotate(-45 0 168.898)" fill="black"/>
<rect x="1133.9" y="16.8984" width="23.8982" height="23.9008" rx="11.9491" transform="rotate(-45 1133.9 16.8984)" fill="black"/>
<rect x="1133.9" y="54.8984" width="23.8982" height="23.9008" rx="11.9491" transform="rotate(-45 1133.9 54.8984)" fill="black"/>
<rect x="1133.9" y="92.8984" width="23.8982" height="23.9008" rx="11.9491" transform="rotate(-45 1133.9 92.8984)" fill="black"/>
<rect x="1133.9" y="130.898" width="23.8982" height="23.9008" rx="11.9491" transform="rotate(-45 1133.9 130.898)" fill="black"/>
<rect x="1133.9" y="206.898" width="23.8982" height="23.9008" rx="11.9491" transform="rotate(-45 1133.9 206.898)" fill="black"/>
<rect x="1133.9" y="168.898" width="23.8982" height="23.9008" rx="11.9491" transform="rotate(-45 1133.9 168.898)" fill="black"/>
<rect x="713.898" y="16.8984" width="23.8982" height="23.9008" rx="11.9491" transform="rotate(-45 713.898 16.8984)" fill="black"/>
<rect x="713.898" y="54.8984" width="23.8982" height="23.9008" rx="11.9491" transform="rotate(-45 713.898 54.8984)" fill="black"/>
<rect x="713.898" y="92.8984" width="23.8982" height="23.9008" rx="11.9491" transform="rotate(-45 713.898 92.8984)" fill="black"/>
<rect x="713.898" y="130.898" width="23.8982" height="23.9008" rx="11.9491" transform="rotate(-45 713.898 130.898)" fill="black"/>
<rect x="713.898" y="206.898" width="23.8982" height="23.9008" rx="11.9491" transform="rotate(-45 713.898 206.898)" fill="black"/>
<rect x="713.898" y="168.898" width="23.8982" height="23.9008" rx="11.9491" transform="rotate(-45 713.898 168.898)" fill="black"/>
<rect x="293.898" y="16.8984" width="23.8982" height="23.9008" rx="11.9491" transform="rotate(-45 293.898 16.8984)" fill="black"/>
<rect x="293.898" y="54.8984" width="23.8982" height="23.9008" rx="11.9491" transform="rotate(-45 293.898 54.8984)" fill="black"/>
<rect x="293.898" y="92.8984" width="23.8982" height="23.9008" rx="11.9491" transform="rotate(-45 293.898 92.8984)" fill="black"/>
<rect x="293.898" y="130.898" width="23.8982" height="23.9008" rx="11.9491" transform="rotate(-45 293.898 130.898)" fill="black"/>
<rect x="293.898" y="206.898" width="23.8982" height="23.9008" rx="11.9491" transform="rotate(-45 293.898 206.898)" fill="black"/>
<rect x="293.898" y="168.898" width="23.8982" height="23.9008" rx="11.9491" transform="rotate(-45 293.898 168.898)" fill="black"/>
<rect x="1049.9" y="16.8984" width="23.8982" height="23.9008" rx="11.9491" transform="rotate(-45 1049.9 16.8984)" fill="black"/>
<rect x="1049.9" y="54.8984" width="23.8982" height="23.9008" rx="11.9491" transform="rotate(-45 1049.9 54.8984)" fill="black"/>
<rect x="1049.9" y="92.8984" width="23.8982" height="23.9008" rx="11.9491" transform="rotate(-45 1049.9 92.8984)" fill="black"/>
<rect x="1049.9" y="130.898" width="23.8982" height="23.9008" rx="11.9491" transform="rotate(-45 1049.9 130.898)" fill="black"/>
<rect x="1049.9" y="206.898" width="23.8982" height="23.9008" rx="11.9491" transform="rotate(-45 1049.9 206.898)" fill="black"/>
<rect x="1049.9" y="168.898" width="23.8982" height="23.9008" rx="11.9491" transform="rotate(-45 1049.9 168.898)" fill="black"/>
<rect x="629.898" y="16.8984" width="23.8982" height="23.9008" rx="11.9491" transform="rotate(-45 629.898 16.8984)" fill="black"/>
<rect x="629.898" y="54.8984" width="23.8982" height="23.9008" rx="11.9491" transform="rotate(-45 629.898 54.8984)" fill="black"/>
<rect x="629.898" y="92.8984" width="23.8982" height="23.9008" rx="11.9491" transform="rotate(-45 629.898 92.8984)" fill="black"/>
<rect x="629.898" y="130.898" width="23.8982" height="23.9008" rx="11.9491" transform="rotate(-45 629.898 130.898)" fill="black"/>
<rect x="629.898" y="206.898" width="23.8982" height="23.9008" rx="11.9491" transform="rotate(-45 629.898 206.898)" fill="black"/>
<rect x="629.898" y="168.898" width="23.8982" height="23.9008" rx="11.9491" transform="rotate(-45 629.898 168.898)" fill="black"/>
<rect x="209.898" y="16.8984" width="23.8982" height="23.9008" rx="11.9491" transform="rotate(-45 209.898 16.8984)" fill="black"/>
<rect x="209.898" y="54.8984" width="23.8982" height="23.9008" rx="11.9491" transform="rotate(-45 209.898 54.8984)" fill="black"/>
<rect x="209.898" y="92.8984" width="23.8982" height="23.9008" rx="11.9491" transform="rotate(-45 209.898 92.8984)" fill="black"/>
<rect x="209.898" y="130.898" width="23.8982" height="23.9008" rx="11.9491" transform="rotate(-45 209.898 130.898)" fill="black"/>
<rect x="209.898" y="206.898" width="23.8982" height="23.9008" rx="11.9491" transform="rotate(-45 209.898 206.898)" fill="black"/>
<rect x="209.898" y="168.898" width="23.8982" height="23.9008" rx="11.9491" transform="rotate(-45 209.898 168.898)" fill="black"/>
<rect x="965.898" y="16.8984" width="23.8982" height="23.9008" rx="11.9491" transform="rotate(-45 965.898 16.8984)" fill="black"/>
<rect x="965.898" y="54.8984" width="23.8982" height="23.9008" rx="11.9491" transform="rotate(-45 965.898 54.8984)" fill="black"/>
<rect x="965.898" y="92.8984" width="23.8982" height="23.9008" rx="11.9491" transform="rotate(-45 965.898 92.8984)" fill="black"/>
<rect x="965.898" y="130.898" width="23.8982" height="23.9008" rx="11.9491" transform="rotate(-45 965.898 130.898)" fill="black"/>
<rect x="965.898" y="206.898" width="23.8982" height="23.9008" rx="11.9491" transform="rotate(-45 965.898 206.898)" fill="black"/>
<rect x="965.898" y="168.898" width="23.8982" height="23.9008" rx="11.9491" transform="rotate(-45 965.898 168.898)" fill="black"/>
<rect x="545.898" y="16.8984" width="23.8982" height="23.9008" rx="11.9491" transform="rotate(-45 545.898 16.8984)" fill="black"/>
<rect x="545.898" y="54.8984" width="23.8982" height="23.9008" rx="11.9491" transform="rotate(-45 545.898 54.8984)" fill="black"/>
<rect x="545.898" y="92.8984" width="23.8982" height="23.9008" rx="11.9491" transform="rotate(-45 545.898 92.8984)" fill="black"/>
<rect x="545.898" y="130.898" width="23.8982" height="23.9008" rx="11.9491" transform="rotate(-45 545.898 130.898)" fill="black"/>
<rect x="545.898" y="206.898" width="23.8982" height="23.9008" rx="11.9491" transform="rotate(-45 545.898 206.898)" fill="black"/>
<rect x="545.898" y="168.898" width="23.8982" height="23.9008" rx="11.9491" transform="rotate(-45 545.898 168.898)" fill="black"/>
<rect x="125.898" y="16.8984" width="23.8982" height="23.9008" rx="11.9491" transform="rotate(-45 125.898 16.8984)" fill="black"/>
<rect x="125.898" y="54.8984" width="23.8982" height="23.9008" rx="11.9491" transform="rotate(-45 125.898 54.8984)" fill="black"/>
<rect x="125.898" y="92.8984" width="23.8982" height="23.9008" rx="11.9491" transform="rotate(-45 125.898 92.8984)" fill="black"/>
<rect x="125.898" y="130.898" width="23.8982" height="23.9008" rx="11.9491" transform="rotate(-45 125.898 130.898)" fill="black"/>
<rect x="125.898" y="206.898" width="23.8982" height="23.9008" rx="11.9491" transform="rotate(-45 125.898 206.898)" fill="black"/>
<rect x="125.898" y="168.898" width="23.8982" height="23.9008" rx="11.9491" transform="rotate(-45 125.898 168.898)" fill="black"/>
<rect x="881.898" y="16.8984" width="23.8982" height="23.9008" rx="11.9491" transform="rotate(-45 881.898 16.8984)" fill="black"/>
<rect x="881.898" y="54.8984" width="23.8982" height="23.9008" rx="11.9491" transform="rotate(-45 881.898 54.8984)" fill="black"/>
<rect x="881.898" y="92.8984" width="23.8982" height="23.9008" rx="11.9491" transform="rotate(-45 881.898 92.8984)" fill="black"/>
<rect x="881.898" y="130.898" width="23.8982" height="23.9008" rx="11.9491" transform="rotate(-45 881.898 130.898)" fill="black"/>
<rect x="881.898" y="206.898" width="23.8982" height="23.9008" rx="11.9491" transform="rotate(-45 881.898 206.898)" fill="black"/>
<rect x="881.898" y="168.898" width="23.8982" height="23.9008" rx="11.9491" transform="rotate(-45 881.898 168.898)" fill="black"/>
<rect x="461.898" y="16.8984" width="23.8982" height="23.9008" rx="11.9491" transform="rotate(-45 461.898 16.8984)" fill="black"/>
<rect x="461.898" y="54.8984" width="23.8982" height="23.9008" rx="11.9491" transform="rotate(-45 461.898 54.8984)" fill="black"/>
<rect x="461.898" y="92.8984" width="23.8982" height="23.9008" rx="11.9491" transform="rotate(-45 461.898 92.8984)" fill="black"/>
<rect x="461.898" y="130.898" width="23.8982" height="23.9008" rx="11.9491" transform="rotate(-45 461.898 130.898)" fill="black"/>
<rect x="461.898" y="206.898" width="23.8982" height="23.9008" rx="11.9491" transform="rotate(-45 461.898 206.898)" fill="black"/>
<rect x="461.898" y="168.898" width="23.8982" height="23.9008" rx="11.9491" transform="rotate(-45 461.898 168.898)" fill="black"/>
<rect x="41.8984" y="16.8984" width="23.8982" height="23.9008" rx="11.9491" transform="rotate(-45 41.8984 16.8984)" fill="black"/>
<rect x="41.8984" y="54.8984" width="23.8982" height="23.9008" rx="11.9491" transform="rotate(-45 41.8984 54.8984)" fill="black"/>
<rect x="41.8984" y="92.8984" width="23.8982" height="23.9008" rx="11.9491" transform="rotate(-45 41.8984 92.8984)" fill="black"/>
<rect x="41.8984" y="130.898" width="23.8982" height="23.9008" rx="11.9491" transform="rotate(-45 41.8984 130.898)" fill="black"/>
<rect x="41.8984" y="206.898" width="23.8982" height="23.9008" rx="11.9491" transform="rotate(-45 41.8984 206.898)" fill="black"/>
<rect x="41.8984" y="168.898" width="23.8982" height="23.9008" rx="11.9491" transform="rotate(-45 41.8984 168.898)" fill="black"/>
<rect x="797.898" y="16.8984" width="23.8982" height="23.9008" rx="11.9491" transform="rotate(-45 797.898 16.8984)" fill="black"/>
<rect x="797.898" y="54.8984" width="23.8982" height="23.9008" rx="11.9491" transform="rotate(-45 797.898 54.8984)" fill="black"/>
<rect x="797.898" y="92.8984" width="23.8982" height="23.9008" rx="11.9491" transform="rotate(-45 797.898 92.8984)" fill="black"/>
<rect x="797.898" y="130.898" width="23.8982" height="23.9008" rx="11.9491" transform="rotate(-45 797.898 130.898)" fill="black"/>
<rect x="797.898" y="206.898" width="23.8982" height="23.9008" rx="11.9491" transform="rotate(-45 797.898 206.898)" fill="black"/>
<rect x="797.898" y="168.898" width="23.8982" height="23.9008" rx="11.9491" transform="rotate(-45 797.898 168.898)" fill="black"/>
<rect x="377.898" y="16.8984" width="23.8982" height="23.9008" rx="11.9491" transform="rotate(-45 377.898 16.8984)" fill="black"/>
<rect x="377.898" y="54.8984" width="23.8982" height="23.9008" rx="11.9491" transform="rotate(-45 377.898 54.8984)" fill="black"/>
<rect x="377.898" y="92.8984" width="23.8982" height="23.9008" rx="11.9491" transform="rotate(-45 377.898 92.8984)" fill="black"/>
<rect x="377.898" y="130.898" width="23.8982" height="23.9008" rx="11.9491" transform="rotate(-45 377.898 130.898)" fill="black"/>
<rect x="377.898" y="206.898" width="23.8982" height="23.9008" rx="11.9491" transform="rotate(-45 377.898 206.898)" fill="black"/>
<rect x="377.898" y="168.898" width="23.8982" height="23.9008" rx="11.9491" transform="rotate(-45 377.898 168.898)" fill="black"/>
</svg>
