<svg width="1418" height="240" viewBox="0 0 1418 240" fill="none" xmlns="http://www.w3.org/2000/svg">
<rect width="320.795" height="4" transform="matrix(-0.67614 -0.736773 -0.736773 0.67614 1140.09 236.365)" fill="black"/>
<rect width="320.795" height="4" transform="matrix(-0.67614 -0.736773 -0.736773 0.67614 636.094 236.365)" fill="black"/>
<rect width="320.795" height="4" transform="matrix(-0.67614 -0.736773 -0.736773 0.67614 912.094 236.365)" fill="black"/>
<rect width="320.795" height="4" transform="matrix(-0.67614 -0.736773 -0.736773 0.67614 408.094 236.365)" fill="black"/>
<rect width="320.795" height="4" transform="matrix(-0.67614 -0.736773 -0.736773 0.67614 684.094 236.365)" fill="black"/>
<rect width="260.349" height="4" transform="matrix(-0.67614 -0.736773 -0.736773 0.67614 180.094 236.365)" fill="black"/>
<rect width="260.349" height="4" transform="matrix(0.67614 0.736773 0.736773 -0.67614 1232.91 2.7041)" fill="black"/>
<rect width="320.795" height="4" transform="matrix(-0.67614 -0.736773 -0.736773 0.67614 1156 236.365)" fill="black"/>
<rect width="320.795" height="4" transform="matrix(-0.67614 -0.736773 -0.736773 0.67614 652 236.365)" fill="black"/>
<rect width="320.795" height="4" transform="matrix(-0.67614 -0.736773 -0.736773 0.67614 928 236.365)" fill="black"/>
<rect width="320.795" height="4" transform="matrix(-0.67614 -0.736773 -0.736773 0.67614 424 236.365)" fill="black"/>
<rect width="320.795" height="4" transform="matrix(-0.67614 -0.736773 -0.736773 0.67614 700 236.365)" fill="black"/>
<rect width="284.044" height="4" transform="matrix(-0.67614 -0.736773 -0.736773 0.67614 196 236.365)" fill="black"/>
<rect width="284.044" height="4" transform="matrix(0.67614 0.736773 0.736773 -0.67614 1217 2.7041)" fill="black"/>
<rect width="26.667" height="4" transform="matrix(-0.67614 -0.736773 -0.736773 0.67614 22 236.365)" fill="black"/>
<rect width="26.667" height="4" transform="matrix(0.67614 0.736773 0.736773 -0.67614 1396 2.7041)" fill="black"/>
<rect width="320.795" height="4" transform="matrix(-0.67614 -0.736773 -0.736773 0.67614 1172 236.365)" fill="black"/>
<rect width="320.795" height="4" transform="matrix(-0.67614 -0.736773 -0.736773 0.67614 668 236.365)" fill="black"/>
<rect width="320.795" height="4" transform="matrix(-0.67614 -0.736773 -0.736773 0.67614 944 236.365)" fill="black"/>
<rect width="320.795" height="4" transform="matrix(-0.67614 -0.736773 -0.736773 0.67614 440 236.365)" fill="black"/>
<rect width="320.795" height="4" transform="matrix(-0.67614 -0.736773 -0.736773 0.67614 716 236.365)" fill="black"/>
<rect width="307.758" height="4" transform="matrix(-0.67614 -0.736773 -0.736773 0.67614 212 236.365)" fill="black"/>
<rect width="307.758" height="4" transform="matrix(0.67614 0.736773 0.736773 -0.67614 1201 2.7041)" fill="black"/>
<rect width="50.4323" height="4" transform="matrix(-0.67614 -0.736773 -0.736773 0.67614 38 236.365)" fill="black"/>
<rect width="50.4323" height="4" transform="matrix(0.67614 0.736773 0.736773 -0.67614 1380 2.7041)" fill="black"/>
<rect width="320.795" height="4" transform="matrix(-0.67614 -0.736773 -0.736773 0.67614 1190 236.365)" fill="black"/>
<rect width="320.795" height="4" transform="matrix(-0.67614 -0.736773 -0.736773 0.67614 962 236.365)" fill="black"/>
<rect width="320.795" height="4" transform="matrix(-0.67614 -0.736773 -0.736773 0.67614 458 236.365)" fill="black"/>
<rect width="320.795" height="4" transform="matrix(-0.67614 -0.736773 -0.736773 0.67614 734 236.365)" fill="black"/>
<rect width="320.795" height="4" transform="matrix(-0.67614 -0.736773 -0.736773 0.67614 230 236.365)" fill="black"/>
<rect width="320.795" height="4" transform="matrix(0.67614 0.736773 0.736773 -0.67614 1183 2.7041)" fill="black"/>
<rect width="77.029" height="4" transform="matrix(-0.67614 -0.736773 -0.736773 0.67614 56 236.365)" fill="black"/>
<rect width="77.029" height="4" transform="matrix(0.67614 0.736773 0.736773 -0.67614 1362 2.7041)" fill="black"/>
<rect width="320.795" height="4" transform="matrix(-0.67614 -0.736773 -0.736773 0.67614 1208 236.365)" fill="black"/>
<rect width="320.795" height="4" transform="matrix(-0.67614 -0.736773 -0.736773 0.67614 980 236.365)" fill="black"/>
<rect width="320.795" height="4" transform="matrix(-0.67614 -0.736773 -0.736773 0.67614 476 236.365)" fill="black"/>
<rect width="320.795" height="4" transform="matrix(-0.67614 -0.736773 -0.736773 0.67614 752 236.365)" fill="black"/>
<rect width="320.795" height="4" transform="matrix(-0.67614 -0.736773 -0.736773 0.67614 248 236.365)" fill="black"/>
<rect width="320.795" height="4" transform="matrix(0.67614 0.736773 0.736773 -0.67614 1165 2.7041)" fill="black"/>
<rect width="103.441" height="4" transform="matrix(-0.67614 -0.736773 -0.736773 0.67614 74 236.365)" fill="black"/>
<rect width="103.441" height="4" transform="matrix(0.67614 0.736773 0.736773 -0.67614 1344 2.7041)" fill="black"/>
<rect width="320.795" height="4" transform="matrix(-0.67614 -0.736773 -0.736773 0.67614 1225 236.365)" fill="black"/>
<rect width="320.795" height="4" transform="matrix(-0.67614 -0.736773 -0.736773 0.67614 997 236.365)" fill="black"/>
<rect width="320.795" height="4" transform="matrix(-0.67614 -0.736773 -0.736773 0.67614 493 236.365)" fill="black"/>
<rect width="320.795" height="4" transform="matrix(-0.67614 -0.736773 -0.736773 0.67614 769 236.365)" fill="black"/>
<rect width="320.795" height="4" transform="matrix(-0.67614 -0.736773 -0.736773 0.67614 265 236.365)" fill="black"/>
<rect width="320.795" height="4" transform="matrix(0.67614 0.736773 0.736773 -0.67614 1148 2.7041)" fill="black"/>
<rect width="128.704" height="4" transform="matrix(-0.67614 -0.736773 -0.736773 0.67614 91 236.365)" fill="black"/>
<rect width="128.704" height="4" transform="matrix(0.67614 0.736773 0.736773 -0.67614 1327 2.7041)" fill="black"/>
<rect width="320.795" height="4" transform="matrix(-0.67614 -0.736773 -0.736773 0.67614 1243 236.365)" fill="black"/>
<rect width="320.795" height="4" transform="matrix(-0.67614 -0.736773 -0.736773 0.67614 1015 236.365)" fill="black"/>
<rect width="320.795" height="4" transform="matrix(-0.67614 -0.736773 -0.736773 0.67614 511 236.365)" fill="black"/>
<rect width="320.795" height="4" transform="matrix(-0.67614 -0.736773 -0.736773 0.67614 787 236.365)" fill="black"/>
<rect width="320.795" height="4" transform="matrix(-0.67614 -0.736773 -0.736773 0.67614 283 236.365)" fill="black"/>
<rect width="155.264" height="4" transform="matrix(-0.67614 -0.736773 -0.736773 0.67614 109 236.365)" fill="black"/>
<rect width="155.264" height="4" transform="matrix(0.67614 0.736773 0.736773 -0.67614 1309 2.7041)" fill="black"/>
<rect width="320.795" height="4" transform="matrix(-0.67614 -0.736773 -0.736773 0.67614 1263 236.365)" fill="black"/>
<rect width="320.795" height="4" transform="matrix(-0.67614 -0.736773 -0.736773 0.67614 1035 236.365)" fill="black"/>
<rect width="320.795" height="4" transform="matrix(-0.67614 -0.736773 -0.736773 0.67614 531 236.365)" fill="black"/>
<rect width="320.795" height="4" transform="matrix(-0.67614 -0.736773 -0.736773 0.67614 807 236.365)" fill="black"/>
<rect width="320.795" height="4" transform="matrix(-0.67614 -0.736773 -0.736773 0.67614 303 236.365)" fill="black"/>
<rect width="185.046" height="4" transform="matrix(-0.67614 -0.736773 -0.736773 0.67614 129 236.365)" fill="black"/>
<rect width="185.046" height="4" transform="matrix(0.67614 0.736773 0.736773 -0.67614 1289 2.7041)" fill="black"/>
<rect width="320.795" height="4" transform="matrix(-0.67614 -0.736773 -0.736773 0.67614 1282 236.365)" fill="black"/>
<rect width="320.795" height="4" transform="matrix(-0.67614 -0.736773 -0.736773 0.67614 1054 236.365)" fill="black"/>
<rect width="320.795" height="4" transform="matrix(-0.67614 -0.736773 -0.736773 0.67614 550 236.365)" fill="black"/>
<rect width="320.795" height="4" transform="matrix(-0.67614 -0.736773 -0.736773 0.67614 826 236.365)" fill="black"/>
<rect width="320.795" height="4" transform="matrix(-0.67614 -0.736773 -0.736773 0.67614 322 236.365)" fill="black"/>
<rect width="212.912" height="4" transform="matrix(-0.67614 -0.736773 -0.736773 0.67614 148 236.365)" fill="black"/>
<rect width="212.912" height="4" transform="matrix(0.67614 0.736773 0.736773 -0.67614 1270 2.7041)" fill="black"/>
<rect width="320.795" height="4" transform="matrix(-0.67614 -0.736773 -0.736773 0.67614 1300 236.365)" fill="black"/>
<rect width="320.795" height="4" transform="matrix(-0.67614 -0.736773 -0.736773 0.67614 1072 236.365)" fill="black"/>
<rect width="320.795" height="4" transform="matrix(-0.67614 -0.736773 -0.736773 0.67614 568 236.365)" fill="black"/>
<rect width="320.795" height="4" transform="matrix(-0.67614 -0.736773 -0.736773 0.67614 844 236.365)" fill="black"/>
<rect width="320.795" height="4" transform="matrix(-0.67614 -0.736773 -0.736773 0.67614 340 236.365)" fill="black"/>
<rect width="239.82" height="4" transform="matrix(-0.67614 -0.736773 -0.736773 0.67614 166 236.365)" fill="black"/>
<rect width="239.82" height="4" transform="matrix(0.67614 0.736773 0.736773 -0.67614 1252 2.7041)" fill="black"/>
<rect width="320.795" height="4" transform="matrix(-0.67614 -0.736773 -0.736773 0.67614 1318 236.365)" fill="black"/>
<rect width="320.795" height="4" transform="matrix(-0.67614 -0.736773 -0.736773 0.67614 1090 236.365)" fill="black"/>
<rect width="320.795" height="4" transform="matrix(-0.67614 -0.736773 -0.736773 0.67614 586 236.365)" fill="black"/>
<rect width="320.795" height="4" transform="matrix(-0.67614 -0.736773 -0.736773 0.67614 862 236.365)" fill="black"/>
<rect width="320.795" height="4" transform="matrix(-0.67614 -0.736773 -0.736773 0.67614 358 236.365)" fill="black"/>
<rect width="320.795" height="4" transform="matrix(-0.67614 -0.736773 -0.736773 0.67614 1335 236.365)" fill="black"/>
<rect width="320.795" height="4" transform="matrix(-0.67614 -0.736773 -0.736773 0.67614 1107 236.365)" fill="black"/>
<rect width="320.795" height="4" transform="matrix(-0.67614 -0.736773 -0.736773 0.67614 603 236.365)" fill="black"/>
<rect width="320.795" height="4" transform="matrix(-0.67614 -0.736773 -0.736773 0.67614 879 236.365)" fill="black"/>
<rect width="320.795" height="4" transform="matrix(-0.67614 -0.736773 -0.736773 0.67614 375 236.365)" fill="black"/>
<rect width="320.795" height="4" transform="matrix(-0.67614 -0.736773 -0.736773 0.67614 1353 236.365)" fill="black"/>
<rect width="320.795" height="4" transform="matrix(-0.67614 -0.736773 -0.736773 0.67614 1125 236.365)" fill="black"/>
<rect width="320.795" height="4" transform="matrix(-0.67614 -0.736773 -0.736773 0.67614 621 236.365)" fill="black"/>
<rect width="320.795" height="4" transform="matrix(-0.67614 -0.736773 -0.736773 0.67614 897 236.365)" fill="black"/>
<rect width="320.795" height="4" transform="matrix(-0.67614 -0.736773 -0.736773 0.67614 393 236.365)" fill="black"/>
</svg>
