<svg width="15" height="26" viewBox="0 0 15 26" fill="none" xmlns="http://www.w3.org/2000/svg">
<path d="M11.2188 4.985H13.301C13.4115 4.985 13.501 4.89546 13.501 4.785V1.34432C13.501 1.24399 13.4272 1.15932 13.3275 1.14868C12.7917 1.09155 11.5711 1 10.176 1C6.88542 1 4.63125 2.987 4.63125 6.639V9.8C4.63125 9.91046 4.54171 10 4.43125 10H1.2C1.08954 10 1 10.0895 1 10.2V14.066C1 14.1765 1.08954 14.266 1.2 14.266H4.43125C4.54171 14.266 4.63125 14.3555 4.63125 14.466V24.8C4.63125 24.9105 4.72079 25 4.83125 25H8.88334C8.99379 25 9.08333 24.9105 9.08333 24.8V14.467C9.08333 14.3565 9.17288 14.267 9.28333 14.267H12.392C12.4925 14.267 12.5774 14.1924 12.5903 14.0927L13.0916 10.2267C13.1071 10.1071 13.0139 10.001 12.8932 10.001H9.28229C9.17184 10.001 9.08229 9.91146 9.08229 9.801V7.062C9.08334 5.829 9.42917 4.985 11.2188 4.985Z" stroke="white" stroke-width="2"/>
</svg>
