<svg width="69" height="15" viewBox="0 0 69 15" fill="none" xmlns="http://www.w3.org/2000/svg">
<mask id="path-1-inside-1" fill="white">
<path d="M7.5 15C8.48491 15 9.46018 14.806 10.3701 14.4291C11.2801 14.0522 12.1069 13.4997 12.8033 12.8033C13.4997 12.1069 14.0522 11.2801 14.4291 10.3701C14.806 9.46018 15 8.48491 15 7.5C15 6.51509 14.806 5.53982 14.4291 4.62987C14.0522 3.71993 13.4997 2.89314 12.8033 2.1967C12.1069 1.50026 11.2801 0.947813 10.3701 0.570903C9.46018 0.193993 8.48491 -3.70887e-07 7.5 -3.27835e-07L7.5 7.5L7.5 15Z"/>
</mask>
<path d="M7.5 15C8.48491 15 9.46018 14.806 10.3701 14.4291C11.2801 14.0522 12.1069 13.4997 12.8033 12.8033C13.4997 12.1069 14.0522 11.2801 14.4291 10.3701C14.806 9.46018 15 8.48491 15 7.5C15 6.51509 14.806 5.53982 14.4291 4.62987C14.0522 3.71993 13.4997 2.89314 12.8033 2.1967C12.1069 1.50026 11.2801 0.947813 10.3701 0.570903C9.46018 0.193993 8.48491 -3.70887e-07 7.5 -3.27835e-07L7.5 7.5L7.5 15Z" stroke="white" stroke-width="2" mask="url(#path-1-inside-1)"/>
<path d="M61.5 14.5C57.634 14.5 54.5 11.366 54.5 7.5C54.5 3.63401 57.634 0.5 61.5 0.5C65.366 0.5 68.5 3.63401 68.5 7.5C68.5 11.366 65.366 14.5 61.5 14.5Z" stroke="white"/>
<path d="M43.5 14.5C39.634 14.5 36.5 11.366 36.5 7.5C36.5 3.63401 39.634 0.5 43.5 0.5C47.366 0.5 50.5 3.63401 50.5 7.5C50.5 11.366 47.366 14.5 43.5 14.5Z" stroke="white"/>
<path d="M25.5 14.5C21.634 14.5 18.5 11.366 18.5 7.5C18.5 3.63401 21.634 0.5 25.5 0.5C29.366 0.5 32.5 3.63401 32.5 7.5C32.5 11.366 29.366 14.5 25.5 14.5Z" stroke="white"/>
</svg>
