<svg width="51" height="15" viewBox="0 0 51 15" fill="none" xmlns="http://www.w3.org/2000/svg">
<path d="M43.5 14.5C39.634 14.5 36.5 11.366 36.5 7.5C36.5 3.63401 39.634 0.5 43.5 0.5C47.366 0.5 50.5 3.63401 50.5 7.5C50.5 11.366 47.366 14.5 43.5 14.5Z" stroke="white"/>
<path d="M25.5 14.5C21.634 14.5 18.5 11.366 18.5 7.5C18.5 3.63401 21.634 0.5 25.5 0.5C29.366 0.5 32.5 3.63401 32.5 7.5C32.5 11.366 29.366 14.5 25.5 14.5Z" stroke="white"/>
<mask id="path-3-inside-1" fill="white">
<path d="M7.5 15C9.48912 15 11.3968 14.2098 12.8033 12.8033C14.2098 11.3968 15 9.48912 15 7.5C15 5.51088 14.2098 3.60322 12.8033 2.1967C11.3968 0.790177 9.48913 5.94614e-08 7.5 -3.27835e-07L7.5 7.5L7.5 15Z"/>
</mask>
<path d="M7.5 15C9.48912 15 11.3968 14.2098 12.8033 12.8033C14.2098 11.3968 15 9.48912 15 7.5C15 5.51088 14.2098 3.60322 12.8033 2.1967C11.3968 0.790177 9.48913 5.94614e-08 7.5 -3.27835e-07L7.5 7.5L7.5 15Z" stroke="white" stroke-width="2" mask="url(#path-3-inside-1)"/>
</svg>
