<svg width="26" height="25" viewBox="0 0 26 25" fill="none" xmlns="http://www.w3.org/2000/svg">
<path d="M25.4316 7.55607C25.3731 6.28085 25.1582 5.40416 24.8505 4.64449C24.5331 3.83812 24.0447 3.11617 23.4049 2.51602C22.7797 1.90652 22.0227 1.43292 21.1925 1.13294C20.3966 0.837529 19.4881 0.631312 18.1598 0.575088C16.8215 0.514102 16.3967 0.5 13.0024 0.5C9.60822 0.5 9.18337 0.514102 7.85007 0.570326C6.52172 0.626551 5.60849 0.832951 4.81736 1.12817C3.9772 1.43292 3.22518 1.90176 2.60002 2.51602C1.96513 3.11617 1.47198 3.84288 1.15931 4.63991C0.851593 5.40416 0.636784 6.27609 0.578217 7.5513C0.514689 8.83604 0.5 9.2439 0.5 12.5023C0.5 15.7608 0.514689 16.1686 0.573256 17.4486C0.631824 18.7238 0.846824 19.6005 1.15454 20.3602C1.47198 21.1666 1.96513 21.8885 2.60002 22.4887C3.22518 23.0982 3.98216 23.5718 4.8124 23.8718C5.60849 24.1672 6.51676 24.3734 7.8453 24.4296C9.17841 24.486 9.60345 24.4999 12.9977 24.4999C16.3919 24.4999 16.8167 24.486 18.15 24.4296C19.4784 24.3734 20.3916 24.1672 21.1827 23.8718C22.8629 23.2482 24.1912 21.9729 24.8408 20.3602C25.1483 19.596 25.3633 18.7238 25.4219 17.4486C25.4805 16.1686 25.4951 15.7608 25.4951 12.5023C25.4951 9.2439 25.4902 8.83604 25.4316 7.55607ZM23.5 17.4486C23.4462 18.6207 23.3512 19.078 23.1803 19.5C22.7602 20.5456 21.5891 21.5967 20.5 22C20.0605 22.1641 19.3662 22.4485 18.15 22.5C16.8314 22.5564 16.3356 22.5 13 22.5C9.66435 22.5 9.15914 22.5564 7.8453 22.5C6.62436 22.4485 5.93954 22.1641 5.5 22C4.95802 21.8077 4.40043 21.3985 4 21C3.58488 20.6108 3.20031 20.0203 3 19.5C2.82907 19.078 2.55361 18.6673 2.5 17.5C2.44124 16.2341 2.5 15.7022 2.5 12.5C2.5 9.29778 2.44124 9.26111 2.5 8C2.55361 6.8279 2.82907 5.92196 3 5.5C3.20031 4.97951 3.57992 4.3846 4 4C4.4052 3.60148 4.95783 3.19212 5.5 3C6.273 2.72609 7.5 2.48398 8.5 2.5C9.81862 2.44378 9.66454 2.5 13 2.5C16.3406 2.5 15.1862 2.44378 16.5 2.5C17.7209 2.55165 19 2.5 19 2.5C19 2.5 20.6925 2.68545 21.5 3.5C22.3075 4.31455 22.7997 4.97951 23 5.5C23.1709 5.92196 23.4462 6.33247 23.5 7.5C23.5586 8.76587 23.5 9.29778 23.5 12.5C23.5 15.7022 23.5586 16.1827 23.5 17.4486Z" fill="white"/>
<path d="M13.5022 6.83789C9.95673 6.83789 7.08008 9.59929 7.08008 13.0032C7.08008 16.407 9.95673 19.1684 13.5022 19.1684C17.0479 19.1684 19.9244 16.407 19.9244 13.0032C19.9244 9.59929 17.0479 6.83789 13.5022 6.83789ZM13.5 17.5C11.1999 17.5 9 15.2083 9 13C9 10.7917 11.2021 8.5 13.5022 8.5C15.8026 8.5 18 10.7917 18 13C18 15.2083 15.8003 17.5 13.5 17.5Z" fill="white"/>
<path d="M21.6804 5.59361C21.6804 6.38844 21.0091 7.03291 20.1809 7.03291C19.353 7.03291 18.6816 6.38844 18.6816 5.59361C18.6816 4.79859 19.353 4.1543 20.1809 4.1543C21.0091 4.1543 21.6804 4.79859 21.6804 5.59361V5.59361Z" fill="white"/>
</svg>
