<svg width="25" height="24" viewBox="0 0 25 24" fill="none" xmlns="http://www.w3.org/2000/svg">
<g clip-path="url(#clip0)">
<path d="M24.9746 7.05607C24.916 5.78085 24.7012 4.90416 24.3935 4.14449C24.0761 3.33812 23.5877 2.61617 22.9478 2.01602C22.3227 1.40652 21.5657 0.932921 20.7354 0.632936C19.9395 0.337529 19.0311 0.131312 17.7027 0.0750879C16.3645 0.0141019 15.9396 0 12.5454 0C9.15119 0 8.72634 0.0141019 7.39303 0.0703262C6.06469 0.126551 5.15146 0.332951 4.36033 0.628174C3.52017 0.932922 2.76815 1.40176 2.14299 2.01602C1.5081 2.61617 1.01495 3.34288 0.702277 4.13991C0.394562 4.90416 0.179752 5.77609 0.121185 7.0513C0.0576582 8.33604 0.0429688 8.7439 0.0429688 12.0023C0.0429688 15.2608 0.0576582 15.6686 0.116225 16.9486C0.174792 18.2238 0.389792 19.1005 0.697508 19.8602C1.01495 20.6666 1.5081 21.3885 2.14299 21.9887C2.76815 22.5982 3.52513 23.0718 4.35537 23.3718C5.15146 23.6672 6.05973 23.8734 7.38827 23.9296C8.72138 23.986 9.14642 23.9999 12.5406 23.9999C15.9349 23.9999 16.3597 23.986 17.693 23.9296C19.0214 23.8734 19.9346 23.6672 20.7257 23.3718C22.4058 22.7482 23.7342 21.4729 24.3838 19.8602C24.6913 19.096 24.9063 18.2238 24.9649 16.9486C25.0234 15.6686 25.0381 15.2608 25.0381 12.0023C25.0381 8.7439 25.0332 8.33604 24.9746 7.05607ZM22.7233 16.8549C22.6695 18.027 22.4644 18.6599 22.2935 19.0819C21.8734 20.1274 21.009 20.9572 19.9199 21.3605C19.4804 21.5246 18.8163 21.7215 17.6001 21.7729C16.2815 21.8293 15.886 21.8433 12.5504 21.8433C9.21472 21.8433 8.81429 21.8293 7.50044 21.7729C6.2795 21.7215 5.62019 21.5246 5.18065 21.3605C4.63867 21.1682 4.14533 20.8634 3.7449 20.4649C3.32978 20.0758 3.01234 19.6069 2.81203 19.0866C2.64109 18.6647 2.43601 18.027 2.38241 16.8596C2.32365 15.5937 2.30915 15.2139 2.30915 12.0117C2.30915 8.80946 2.32365 8.42505 2.38241 7.16394C2.43601 5.99183 2.64109 5.3589 2.81203 4.93694C3.01234 4.41645 3.32978 3.94303 3.74986 3.55843C4.15506 3.15992 4.64344 2.85517 5.18561 2.66306C5.62515 2.49896 6.28942 2.30209 7.5054 2.25044C8.82402 2.19422 9.21968 2.18011 12.5551 2.18011C15.8957 2.18011 16.2912 2.19422 17.6051 2.25044C18.826 2.30209 19.4853 2.49896 19.9249 2.66306C20.4668 2.85517 20.9602 3.15992 21.3606 3.55843C21.7757 3.94761 22.0932 4.41645 22.2935 4.93694C22.4644 5.3589 22.6695 5.99641 22.7233 7.16394C22.7819 8.42981 22.7965 8.80946 22.7965 12.0117C22.7965 15.2139 22.7819 15.589 22.7233 16.8549Z" fill="white"/>
<path d="M12.5452 5.83789C8.9997 5.83789 6.12305 8.59929 6.12305 12.0032C6.12305 15.407 8.9997 18.1684 12.5452 18.1684C16.0909 18.1684 18.9673 15.407 18.9673 12.0032C18.9673 8.59929 16.0909 5.83789 12.5452 5.83789ZM12.5452 16.0024C10.2451 16.0024 8.37931 14.2115 8.37931 12.0032C8.37931 9.79484 10.2451 8.0039 12.5452 8.0039C14.8455 8.0039 16.7111 9.79484 16.7111 12.0032C16.7111 14.2115 14.8455 16.0024 12.5452 16.0024V16.0024Z" fill="white"/>
<path d="M20.7234 5.59312C20.7234 6.38795 20.052 7.03242 19.2239 7.03242C18.3959 7.03242 17.7246 6.38795 17.7246 5.59312C17.7246 4.7981 18.3959 4.15381 19.2239 4.15381C20.052 4.15381 20.7234 4.7981 20.7234 5.59312V5.59312Z" fill="white"/>
</g>
<defs>
<clipPath id="clip0">
<rect width="25" height="24" fill="white"/>
</clipPath>
</defs>
</svg>
