<svg width="25" height="24" viewBox="0 0 25 24" fill="none" xmlns="http://www.w3.org/2000/svg">
<g clip-path="url(#clip0)">
<path d="M23.463 4.51081L23.463 4.51079C23.1998 3.84212 22.7955 3.2442 22.2637 2.74539L22.2567 2.73878L22.2497 2.73204C21.7275 2.22292 21.093 1.8254 20.3956 1.57343L20.3875 1.57048L20.3875 1.57044C19.6987 1.3148 18.8945 1.12642 17.6604 1.07419L17.6572 1.07406C16.3418 1.01411 15.9349 1 12.5454 1C9.15634 1 8.74767 1.01409 7.43532 1.06943L23.463 4.51081ZM23.463 4.51081L23.4666 4.51992M23.463 4.51081L23.4666 4.51992M23.4666 4.51992C23.7277 5.16443 23.9217 5.92832 23.9756 7.10177M23.4666 4.51992L23.9756 7.10177M4.70133 1.56828L4.70132 1.56824C3.99149 1.82572 3.36334 2.21889 2.84385 2.72932L2.83696 2.73609L2.82994 2.74273C2.29958 3.24406 1.89095 3.8481 1.6332 4.50511L1.62994 4.51342L1.62991 4.51341C1.36769 5.16465 1.17398 5.92478 1.12013 7.09718L1.11997 7.10069H1.11996C1.05766 8.36063 1.04297 8.74907 1.04297 12.0023C1.04297 15.2552 1.05765 15.6455 1.11517 16.9027L4.70133 1.56828ZM4.70133 1.56828L4.70995 1.56507M4.70133 1.56828L4.70995 1.56507M4.70995 1.56507C5.39215 1.31049 6.20033 1.12172 7.43517 1.06944L4.70995 1.56507ZM1.62805 19.4939L1.628 19.4939C1.89021 20.16 2.29871 20.7598 2.82994 21.262L2.83554 21.2673L2.84107 21.2726C3.36327 21.7818 3.99782 22.1793 4.69519 22.4313L4.70328 22.4342L4.70326 22.4342C5.39229 22.6899 6.19638 22.8783 7.43055 22.9305C8.74267 22.986 9.15131 22.9999 12.5406 22.9999C15.93 22.9999 16.3384 22.986 17.6507 22.9305C18.8858 22.8782 19.6939 22.6896 20.3759 22.4349L20.3777 22.4342C21.8031 21.9052 22.9154 20.8292 23.4562 19.4866C23.7182 18.8352 23.9121 18.0749 23.9659 16.9029C23.9659 16.9029 23.9659 16.9028 23.9659 16.9027L1.62805 19.4939ZM1.62805 19.4939L1.62436 19.4848M1.62805 19.4939L1.62436 19.4848M23.9756 7.10177C23.9756 7.10183 23.9756 7.10189 23.9756 7.10194L24.9746 7.05607L23.9756 7.10177ZM1.62436 19.4848C1.36324 18.8401 1.16908 18.0762 1.11518 16.9029L1.62436 19.4848ZM23.7222 16.9007C23.6631 18.1891 23.4326 18.9331 23.2208 19.4561C22.6919 20.7713 21.612 21.7998 20.2687 22.2977C19.7327 22.4977 18.9651 22.7161 17.6424 22.772M23.7222 16.9007L7.50044 21.7729L7.45755 22.772C8.79256 22.8293 9.20953 22.8433 12.5504 22.8433C15.8909 22.8433 16.3031 22.8293 17.6424 22.772M23.7222 16.9007C23.7818 15.6125 23.7965 15.2195 23.7965 12.0117C23.7965 8.80374 23.7818 8.40627 23.7222 7.11791C23.6634 5.84022 23.4347 5.09261 23.2235 4.56943C22.9695 3.91308 22.5705 3.32501 22.0554 2.8391C21.5492 2.33857 20.9344 1.96135 20.2678 1.72369M23.7222 16.9007L20.2678 1.72369M17.6424 22.772L17.6001 21.7729L17.6428 22.772C17.6427 22.772 17.6425 22.772 17.6424 22.772ZM20.2678 1.72369C19.7327 1.52446 18.9707 1.30736 17.6478 1.25135L20.2678 1.72369ZM4.83839 22.3001C4.84102 22.3011 4.84364 22.302 4.84627 22.3029L5.18065 21.3605L4.8309 22.2973C4.83339 22.2983 4.83589 22.2992 4.83839 22.3001ZM1.882 19.4542C2.13604 20.1103 2.53497 20.6984 3.05011 21.1843L1.38348 16.906C1.44219 18.1833 1.6708 18.931 1.882 19.4542ZM1.30915 12.0117C1.30915 15.2192 1.32366 15.6172 1.38346 16.9055L7.4628 1.25135C6.14591 1.30729 5.37909 1.52405 4.84342 1.72339C4.17387 1.96196 3.56724 2.33911 3.06138 2.833C2.53326 3.3203 2.13459 3.91675 1.88198 4.56942C1.67101 5.09198 1.44223 5.83497 1.38349 7.11739C1.32366 8.40147 1.30915 8.80383 1.30915 12.0117ZM12.5551 1.18011C9.2144 1.18011 8.80232 1.19423 7.46297 1.25134L17.6473 1.25133C16.3129 1.19423 15.9007 1.18011 12.5551 1.18011Z" stroke="white" stroke-width="2"/>
<path d="M12.5432 5.83789C8.99775 5.83789 6.12109 8.59929 6.12109 12.0032C6.12109 15.407 8.99775 18.1684 12.5432 18.1684C16.0889 18.1684 18.9654 15.407 18.9654 12.0032C18.9654 8.59929 16.0889 5.83789 12.5432 5.83789ZM12.5432 16.0024C10.2431 16.0024 8.37736 14.2115 8.37736 12.0032C8.37736 9.79484 10.2431 8.0039 12.5432 8.0039C14.8436 8.0039 16.7091 9.79484 16.7091 12.0032C16.7091 14.2115 14.8436 16.0024 12.5432 16.0024Z" fill="white"/>
<path d="M20.7214 5.59361C20.7214 6.38844 20.0501 7.03291 19.2219 7.03291C18.394 7.03291 17.7227 6.38844 17.7227 5.59361C17.7227 4.79859 18.394 4.1543 19.2219 4.1543C20.0501 4.1543 20.7214 4.79859 20.7214 5.59361Z" fill="white"/>
</g>
<defs>
<clipPath id="clip0">
<rect width="25" height="24" fill="white"/>
</clipPath>
</defs>
</svg>
