<svg width="1210" height="224" viewBox="0 0 1210 224" fill="none" xmlns="http://www.w3.org/2000/svg">
<rect x="1176.1" y="16.8984" width="23.8982" height="23.9008" transform="rotate(-45 1176.1 16.8984)" fill="black"/>
<rect x="1176.1" y="54.8984" width="23.8982" height="23.9008" transform="rotate(-45 1176.1 54.8984)" fill="black"/>
<rect x="1176.1" y="92.8984" width="23.8982" height="23.9008" transform="rotate(-45 1176.1 92.8984)" fill="black"/>
<rect x="1176.1" y="130.898" width="23.8982" height="23.9008" transform="rotate(-45 1176.1 130.898)" fill="black"/>
<rect x="1176.1" y="206.898" width="23.8982" height="23.9008" transform="rotate(-45 1176.1 206.898)" fill="black"/>
<rect x="1176.1" y="168.898" width="23.8982" height="23.9008" transform="rotate(-45 1176.1 168.898)" fill="black"/>
<rect x="756.102" y="16.8984" width="23.8982" height="23.9008" transform="rotate(-45 756.102 16.8984)" fill="black"/>
<rect x="756.102" y="54.8984" width="23.8982" height="23.9008" transform="rotate(-45 756.102 54.8984)" fill="black"/>
<rect x="756.102" y="92.8984" width="23.8982" height="23.9008" transform="rotate(-45 756.102 92.8984)" fill="black"/>
<rect x="756.102" y="130.898" width="23.8982" height="23.9008" transform="rotate(-45 756.102 130.898)" fill="black"/>
<rect x="756.102" y="206.898" width="23.8982" height="23.9008" transform="rotate(-45 756.102 206.898)" fill="black"/>
<rect x="756.102" y="168.898" width="23.8982" height="23.9008" transform="rotate(-45 756.102 168.898)" fill="black"/>
<rect x="336.102" y="16.8984" width="23.8982" height="23.9008" transform="rotate(-45 336.102 16.8984)" fill="black"/>
<rect x="336.102" y="54.8984" width="23.8982" height="23.9008" transform="rotate(-45 336.102 54.8984)" fill="black"/>
<rect x="336.102" y="92.8984" width="23.8982" height="23.9008" transform="rotate(-45 336.102 92.8984)" fill="black"/>
<rect x="336.102" y="130.898" width="23.8982" height="23.9008" transform="rotate(-45 336.102 130.898)" fill="black"/>
<rect x="336.102" y="206.898" width="23.8982" height="23.9008" transform="rotate(-45 336.102 206.898)" fill="black"/>
<rect x="336.102" y="168.898" width="23.8982" height="23.9008" transform="rotate(-45 336.102 168.898)" fill="black"/>
<rect x="1092.1" y="16.8984" width="23.8982" height="23.9008" transform="rotate(-45 1092.1 16.8984)" fill="black"/>
<rect x="1092.1" y="54.8984" width="23.8982" height="23.9008" transform="rotate(-45 1092.1 54.8984)" fill="black"/>
<rect x="1092.1" y="92.8984" width="23.8982" height="23.9008" transform="rotate(-45 1092.1 92.8984)" fill="black"/>
<rect x="1092.1" y="130.898" width="23.8982" height="23.9008" transform="rotate(-45 1092.1 130.898)" fill="black"/>
<rect x="1092.1" y="206.898" width="23.8982" height="23.9008" transform="rotate(-45 1092.1 206.898)" fill="black"/>
<rect x="1092.1" y="168.898" width="23.8982" height="23.9008" transform="rotate(-45 1092.1 168.898)" fill="black"/>
<rect x="672.102" y="16.8984" width="23.8982" height="23.9008" transform="rotate(-45 672.102 16.8984)" fill="black"/>
<rect x="672.102" y="54.8984" width="23.8982" height="23.9008" transform="rotate(-45 672.102 54.8984)" fill="black"/>
<rect x="672.102" y="92.8984" width="23.8982" height="23.9008" transform="rotate(-45 672.102 92.8984)" fill="black"/>
<rect x="672.102" y="130.898" width="23.8982" height="23.9008" transform="rotate(-45 672.102 130.898)" fill="black"/>
<rect x="672.102" y="206.898" width="23.8982" height="23.9008" transform="rotate(-45 672.102 206.898)" fill="black"/>
<rect x="672.102" y="168.898" width="23.8982" height="23.9008" transform="rotate(-45 672.102 168.898)" fill="black"/>
<rect x="252.102" y="16.8984" width="23.8982" height="23.9008" transform="rotate(-45 252.102 16.8984)" fill="black"/>
<rect x="252.102" y="54.8984" width="23.8982" height="23.9008" transform="rotate(-45 252.102 54.8984)" fill="black"/>
<rect x="252.102" y="92.8984" width="23.8982" height="23.9008" transform="rotate(-45 252.102 92.8984)" fill="black"/>
<rect x="252.102" y="130.898" width="23.8982" height="23.9008" transform="rotate(-45 252.102 130.898)" fill="black"/>
<rect x="252.102" y="206.898" width="23.8982" height="23.9008" transform="rotate(-45 252.102 206.898)" fill="black"/>
<rect x="252.102" y="168.898" width="23.8982" height="23.9008" transform="rotate(-45 252.102 168.898)" fill="black"/>
<rect x="1008.1" y="16.8984" width="23.8982" height="23.9008" transform="rotate(-45 1008.1 16.8984)" fill="black"/>
<rect x="1008.1" y="54.8984" width="23.8982" height="23.9008" transform="rotate(-45 1008.1 54.8984)" fill="black"/>
<rect x="1008.1" y="92.8984" width="23.8982" height="23.9008" transform="rotate(-45 1008.1 92.8984)" fill="black"/>
<rect x="1008.1" y="130.898" width="23.8982" height="23.9008" transform="rotate(-45 1008.1 130.898)" fill="black"/>
<rect x="1008.1" y="206.898" width="23.8982" height="23.9008" transform="rotate(-45 1008.1 206.898)" fill="black"/>
<rect x="1008.1" y="168.898" width="23.8982" height="23.9008" transform="rotate(-45 1008.1 168.898)" fill="black"/>
<rect x="588.102" y="16.8984" width="23.8982" height="23.9008" transform="rotate(-45 588.102 16.8984)" fill="black"/>
<rect x="588.102" y="54.8984" width="23.8982" height="23.9008" transform="rotate(-45 588.102 54.8984)" fill="black"/>
<rect x="588.102" y="92.8984" width="23.8982" height="23.9008" transform="rotate(-45 588.102 92.8984)" fill="black"/>
<rect x="588.102" y="130.898" width="23.8982" height="23.9008" transform="rotate(-45 588.102 130.898)" fill="black"/>
<rect x="588.102" y="206.898" width="23.8982" height="23.9008" transform="rotate(-45 588.102 206.898)" fill="black"/>
<rect x="588.102" y="168.898" width="23.8982" height="23.9008" transform="rotate(-45 588.102 168.898)" fill="black"/>
<rect x="168.102" y="16.8984" width="23.8982" height="23.9008" transform="rotate(-45 168.102 16.8984)" fill="black"/>
<rect x="168.102" y="54.8984" width="23.8982" height="23.9008" transform="rotate(-45 168.102 54.8984)" fill="black"/>
<rect x="168.102" y="92.8984" width="23.8982" height="23.9008" transform="rotate(-45 168.102 92.8984)" fill="black"/>
<rect x="168.102" y="130.898" width="23.8982" height="23.9008" transform="rotate(-45 168.102 130.898)" fill="black"/>
<rect x="168.102" y="206.898" width="23.8982" height="23.9008" transform="rotate(-45 168.102 206.898)" fill="black"/>
<rect x="168.102" y="168.898" width="23.8982" height="23.9008" transform="rotate(-45 168.102 168.898)" fill="black"/>
<rect x="924.102" y="16.8984" width="23.8982" height="23.9008" transform="rotate(-45 924.102 16.8984)" fill="black"/>
<rect x="924.102" y="54.8984" width="23.8982" height="23.9008" transform="rotate(-45 924.102 54.8984)" fill="black"/>
<rect x="924.102" y="92.8984" width="23.8982" height="23.9008" transform="rotate(-45 924.102 92.8984)" fill="black"/>
<rect x="924.102" y="130.898" width="23.8982" height="23.9008" transform="rotate(-45 924.102 130.898)" fill="black"/>
<rect x="924.102" y="206.898" width="23.8982" height="23.9008" transform="rotate(-45 924.102 206.898)" fill="black"/>
<rect x="924.102" y="168.898" width="23.8982" height="23.9008" transform="rotate(-45 924.102 168.898)" fill="black"/>
<rect x="504.102" y="16.8984" width="23.8982" height="23.9008" transform="rotate(-45 504.102 16.8984)" fill="black"/>
<rect x="504.102" y="54.8984" width="23.8982" height="23.9008" transform="rotate(-45 504.102 54.8984)" fill="black"/>
<rect x="504.102" y="92.8984" width="23.8982" height="23.9008" transform="rotate(-45 504.102 92.8984)" fill="black"/>
<rect x="504.102" y="130.898" width="23.8982" height="23.9008" transform="rotate(-45 504.102 130.898)" fill="black"/>
<rect x="504.102" y="206.898" width="23.8982" height="23.9008" transform="rotate(-45 504.102 206.898)" fill="black"/>
<rect x="504.102" y="168.898" width="23.8982" height="23.9008" transform="rotate(-45 504.102 168.898)" fill="black"/>
<rect x="84.1016" y="16.8984" width="23.8982" height="23.9008" transform="rotate(-45 84.1016 16.8984)" fill="black"/>
<rect x="84.1016" y="54.8984" width="23.8982" height="23.9008" transform="rotate(-45 84.1016 54.8984)" fill="black"/>
<rect x="84.1016" y="92.8984" width="23.8982" height="23.9008" transform="rotate(-45 84.1016 92.8984)" fill="black"/>
<rect x="84.1016" y="130.898" width="23.8982" height="23.9008" transform="rotate(-45 84.1016 130.898)" fill="black"/>
<rect x="84.1016" y="206.898" width="23.8982" height="23.9008" transform="rotate(-45 84.1016 206.898)" fill="black"/>
<rect x="84.1016" y="168.898" width="23.8982" height="23.9008" transform="rotate(-45 84.1016 168.898)" fill="black"/>
<rect x="840.102" y="16.8984" width="23.8982" height="23.9008" transform="rotate(-45 840.102 16.8984)" fill="black"/>
<rect x="840.102" y="54.8984" width="23.8982" height="23.9008" transform="rotate(-45 840.102 54.8984)" fill="black"/>
<rect x="840.102" y="92.8984" width="23.8982" height="23.9008" transform="rotate(-45 840.102 92.8984)" fill="black"/>
<rect x="840.102" y="130.898" width="23.8982" height="23.9008" transform="rotate(-45 840.102 130.898)" fill="black"/>
<rect x="840.102" y="206.898" width="23.8982" height="23.9008" transform="rotate(-45 840.102 206.898)" fill="black"/>
<rect x="840.102" y="168.898" width="23.8982" height="23.9008" transform="rotate(-45 840.102 168.898)" fill="black"/>
<rect x="420.102" y="16.8984" width="23.8982" height="23.9008" transform="rotate(-45 420.102 16.8984)" fill="black"/>
<rect x="420.102" y="54.8984" width="23.8982" height="23.9008" transform="rotate(-45 420.102 54.8984)" fill="black"/>
<rect x="420.102" y="92.8984" width="23.8982" height="23.9008" transform="rotate(-45 420.102 92.8984)" fill="black"/>
<rect x="420.102" y="130.898" width="23.8982" height="23.9008" transform="rotate(-45 420.102 130.898)" fill="black"/>
<rect x="420.102" y="206.898" width="23.8982" height="23.9008" transform="rotate(-45 420.102 206.898)" fill="black"/>
<rect x="420.102" y="168.898" width="23.8982" height="23.9008" transform="rotate(-45 420.102 168.898)" fill="black"/>
<rect x="0.101562" y="16.8984" width="23.8982" height="23.9008" transform="rotate(-45 0.101562 16.8984)" fill="black"/>
<rect x="0.101562" y="54.8984" width="23.8982" height="23.9008" transform="rotate(-45 0.101562 54.8984)" fill="black"/>
<rect x="0.101562" y="92.8984" width="23.8982" height="23.9008" transform="rotate(-45 0.101562 92.8984)" fill="black"/>
<rect x="0.101562" y="130.898" width="23.8982" height="23.9008" transform="rotate(-45 0.101562 130.898)" fill="black"/>
<rect x="0.101562" y="206.898" width="23.8982" height="23.9008" transform="rotate(-45 0.101562 206.898)" fill="black"/>
<rect x="0.101562" y="168.898" width="23.8982" height="23.9008" transform="rotate(-45 0.101562 168.898)" fill="black"/>
<rect x="1134" y="16.8984" width="23.8982" height="23.9008" transform="rotate(-45 1134 16.8984)" fill="black"/>
<rect x="1134" y="54.8984" width="23.8982" height="23.9008" transform="rotate(-45 1134 54.8984)" fill="black"/>
<rect x="1134" y="92.8984" width="23.8982" height="23.9008" transform="rotate(-45 1134 92.8984)" fill="black"/>
<rect x="1134" y="130.898" width="23.8982" height="23.9008" transform="rotate(-45 1134 130.898)" fill="black"/>
<rect x="1134" y="206.898" width="23.8982" height="23.9008" transform="rotate(-45 1134 206.898)" fill="black"/>
<rect x="1134" y="168.898" width="23.8982" height="23.9008" transform="rotate(-45 1134 168.898)" fill="black"/>
<rect x="714" y="16.8984" width="23.8982" height="23.9008" transform="rotate(-45 714 16.8984)" fill="black"/>
<rect x="714" y="54.8984" width="23.8982" height="23.9008" transform="rotate(-45 714 54.8984)" fill="black"/>
<rect x="714" y="92.8984" width="23.8982" height="23.9008" transform="rotate(-45 714 92.8984)" fill="black"/>
<rect x="714" y="130.898" width="23.8982" height="23.9008" transform="rotate(-45 714 130.898)" fill="black"/>
<rect x="714" y="206.898" width="23.8982" height="23.9008" transform="rotate(-45 714 206.898)" fill="black"/>
<rect x="714" y="168.898" width="23.8982" height="23.9008" transform="rotate(-45 714 168.898)" fill="black"/>
<rect x="294" y="16.8984" width="23.8982" height="23.9008" transform="rotate(-45 294 16.8984)" fill="black"/>
<rect x="294" y="54.8984" width="23.8982" height="23.9008" transform="rotate(-45 294 54.8984)" fill="black"/>
<rect x="294" y="92.8984" width="23.8982" height="23.9008" transform="rotate(-45 294 92.8984)" fill="black"/>
<rect x="294" y="130.898" width="23.8982" height="23.9008" transform="rotate(-45 294 130.898)" fill="black"/>
<rect x="294" y="206.898" width="23.8982" height="23.9008" transform="rotate(-45 294 206.898)" fill="black"/>
<rect x="294" y="168.898" width="23.8982" height="23.9008" transform="rotate(-45 294 168.898)" fill="black"/>
<rect x="1050" y="16.8984" width="23.8982" height="23.9008" transform="rotate(-45 1050 16.8984)" fill="black"/>
<rect x="1050" y="54.8984" width="23.8982" height="23.9008" transform="rotate(-45 1050 54.8984)" fill="black"/>
<rect x="1050" y="92.8984" width="23.8982" height="23.9008" transform="rotate(-45 1050 92.8984)" fill="black"/>
<rect x="1050" y="130.898" width="23.8982" height="23.9008" transform="rotate(-45 1050 130.898)" fill="black"/>
<rect x="1050" y="206.898" width="23.8982" height="23.9008" transform="rotate(-45 1050 206.898)" fill="black"/>
<rect x="1050" y="168.898" width="23.8982" height="23.9008" transform="rotate(-45 1050 168.898)" fill="black"/>
<rect x="630" y="16.8984" width="23.8982" height="23.9008" transform="rotate(-45 630 16.8984)" fill="black"/>
<rect x="630" y="54.8984" width="23.8982" height="23.9008" transform="rotate(-45 630 54.8984)" fill="black"/>
<rect x="630" y="92.8984" width="23.8982" height="23.9008" transform="rotate(-45 630 92.8984)" fill="black"/>
<rect x="630" y="130.898" width="23.8982" height="23.9008" transform="rotate(-45 630 130.898)" fill="black"/>
<rect x="630" y="206.898" width="23.8982" height="23.9008" transform="rotate(-45 630 206.898)" fill="black"/>
<rect x="630" y="168.898" width="23.8982" height="23.9008" transform="rotate(-45 630 168.898)" fill="black"/>
<rect x="210" y="16.8984" width="23.8982" height="23.9008" transform="rotate(-45 210 16.8984)" fill="black"/>
<rect x="210" y="54.8984" width="23.8982" height="23.9008" transform="rotate(-45 210 54.8984)" fill="black"/>
<rect x="210" y="92.8984" width="23.8982" height="23.9008" transform="rotate(-45 210 92.8984)" fill="black"/>
<rect x="210" y="130.898" width="23.8982" height="23.9008" transform="rotate(-45 210 130.898)" fill="black"/>
<rect x="210" y="206.898" width="23.8982" height="23.9008" transform="rotate(-45 210 206.898)" fill="black"/>
<rect x="210" y="168.898" width="23.8982" height="23.9008" transform="rotate(-45 210 168.898)" fill="black"/>
<rect x="966" y="16.8984" width="23.8982" height="23.9008" transform="rotate(-45 966 16.8984)" fill="black"/>
<rect x="966" y="54.8984" width="23.8982" height="23.9008" transform="rotate(-45 966 54.8984)" fill="black"/>
<rect x="966" y="92.8984" width="23.8982" height="23.9008" transform="rotate(-45 966 92.8984)" fill="black"/>
<rect x="966" y="130.898" width="23.8982" height="23.9008" transform="rotate(-45 966 130.898)" fill="black"/>
<rect x="966" y="206.898" width="23.8982" height="23.9008" transform="rotate(-45 966 206.898)" fill="black"/>
<rect x="966" y="168.898" width="23.8982" height="23.9008" transform="rotate(-45 966 168.898)" fill="black"/>
<rect x="546" y="16.8984" width="23.8982" height="23.9008" transform="rotate(-45 546 16.8984)" fill="black"/>
<rect x="546" y="54.8984" width="23.8982" height="23.9008" transform="rotate(-45 546 54.8984)" fill="black"/>
<rect x="546" y="92.8984" width="23.8982" height="23.9008" transform="rotate(-45 546 92.8984)" fill="black"/>
<rect x="546" y="130.898" width="23.8982" height="23.9008" transform="rotate(-45 546 130.898)" fill="black"/>
<rect x="546" y="206.898" width="23.8982" height="23.9008" transform="rotate(-45 546 206.898)" fill="black"/>
<rect x="546" y="168.898" width="23.8982" height="23.9008" transform="rotate(-45 546 168.898)" fill="black"/>
<rect x="126" y="16.8984" width="23.8982" height="23.9008" transform="rotate(-45 126 16.8984)" fill="black"/>
<rect x="126" y="54.8984" width="23.8982" height="23.9008" transform="rotate(-45 126 54.8984)" fill="black"/>
<rect x="126" y="92.8984" width="23.8982" height="23.9008" transform="rotate(-45 126 92.8984)" fill="black"/>
<rect x="126" y="130.898" width="23.8982" height="23.9008" transform="rotate(-45 126 130.898)" fill="black"/>
<rect x="126" y="206.898" width="23.8982" height="23.9008" transform="rotate(-45 126 206.898)" fill="black"/>
<rect x="126" y="168.898" width="23.8982" height="23.9008" transform="rotate(-45 126 168.898)" fill="black"/>
<rect x="882" y="16.8984" width="23.8982" height="23.9008" transform="rotate(-45 882 16.8984)" fill="black"/>
<rect x="882" y="54.8984" width="23.8982" height="23.9008" transform="rotate(-45 882 54.8984)" fill="black"/>
<rect x="882" y="92.8984" width="23.8982" height="23.9008" transform="rotate(-45 882 92.8984)" fill="black"/>
<rect x="882" y="130.898" width="23.8982" height="23.9008" transform="rotate(-45 882 130.898)" fill="black"/>
<rect x="882" y="206.898" width="23.8982" height="23.9008" transform="rotate(-45 882 206.898)" fill="black"/>
<rect x="882" y="168.898" width="23.8982" height="23.9008" transform="rotate(-45 882 168.898)" fill="black"/>
<rect x="462" y="16.8984" width="23.8982" height="23.9008" transform="rotate(-45 462 16.8984)" fill="black"/>
<rect x="462" y="54.8984" width="23.8982" height="23.9008" transform="rotate(-45 462 54.8984)" fill="black"/>
<rect x="462" y="92.8984" width="23.8982" height="23.9008" transform="rotate(-45 462 92.8984)" fill="black"/>
<rect x="462" y="130.898" width="23.8982" height="23.9008" transform="rotate(-45 462 130.898)" fill="black"/>
<rect x="462" y="206.898" width="23.8982" height="23.9008" transform="rotate(-45 462 206.898)" fill="black"/>
<rect x="462" y="168.898" width="23.8982" height="23.9008" transform="rotate(-45 462 168.898)" fill="black"/>
<rect x="42" y="16.8984" width="23.8982" height="23.9008" transform="rotate(-45 42 16.8984)" fill="black"/>
<rect x="42" y="54.8984" width="23.8982" height="23.9008" transform="rotate(-45 42 54.8984)" fill="black"/>
<rect x="42" y="92.8984" width="23.8982" height="23.9008" transform="rotate(-45 42 92.8984)" fill="black"/>
<rect x="42" y="130.898" width="23.8982" height="23.9008" transform="rotate(-45 42 130.898)" fill="black"/>
<rect x="42" y="206.898" width="23.8982" height="23.9008" transform="rotate(-45 42 206.898)" fill="black"/>
<rect x="42" y="168.898" width="23.8982" height="23.9008" transform="rotate(-45 42 168.898)" fill="black"/>
<rect x="798" y="16.8984" width="23.8982" height="23.9008" transform="rotate(-45 798 16.8984)" fill="black"/>
<rect x="798" y="54.8984" width="23.8982" height="23.9008" transform="rotate(-45 798 54.8984)" fill="black"/>
<rect x="798" y="92.8984" width="23.8982" height="23.9008" transform="rotate(-45 798 92.8984)" fill="black"/>
<rect x="798" y="130.898" width="23.8982" height="23.9008" transform="rotate(-45 798 130.898)" fill="black"/>
<rect x="798" y="206.898" width="23.8982" height="23.9008" transform="rotate(-45 798 206.898)" fill="black"/>
<rect x="798" y="168.898" width="23.8982" height="23.9008" transform="rotate(-45 798 168.898)" fill="black"/>
<rect x="378" y="16.8984" width="23.8982" height="23.9008" transform="rotate(-45 378 16.8984)" fill="black"/>
<rect x="378" y="54.8984" width="23.8982" height="23.9008" transform="rotate(-45 378 54.8984)" fill="black"/>
<rect x="378" y="92.8984" width="23.8982" height="23.9008" transform="rotate(-45 378 92.8984)" fill="black"/>
<rect x="378" y="130.898" width="23.8982" height="23.9008" transform="rotate(-45 378 130.898)" fill="black"/>
<rect x="378" y="206.898" width="23.8982" height="23.9008" transform="rotate(-45 378 206.898)" fill="black"/>
<rect x="378" y="168.898" width="23.8982" height="23.9008" transform="rotate(-45 378 168.898)" fill="black"/>
</svg>
