<svg width="1037" height="237" viewBox="0 0 1037 237" fill="none" xmlns="http://www.w3.org/2000/svg">
<rect width="3" height="237" fill="black"/>
<rect x="352" width="3" height="237" fill="black"/>
<rect x="176" width="3" height="237" fill="black"/>
<rect x="528" width="3" height="237" fill="black"/>
<rect x="814" width="3" height="237" fill="black"/>
<rect x="88" width="3" height="237" fill="black"/>
<rect x="440" width="3" height="237" fill="black"/>
<rect x="264" width="3" height="237" fill="black"/>
<rect x="616" width="3" height="237" fill="black"/>
<rect x="902" width="3" height="237" fill="black"/>
<rect x="748" width="3" height="237" fill="black"/>
<rect x="1034" width="3" height="237" fill="black"/>
<rect x="22" width="3" height="237" fill="black"/>
<rect x="374" width="3" height="237" fill="black"/>
<rect x="198" width="3" height="237" fill="black"/>
<rect x="550" width="3" height="237" fill="black"/>
<rect x="836" width="3" height="237" fill="black"/>
<rect x="110" width="3" height="237" fill="black"/>
<rect x="462" width="3" height="237" fill="black"/>
<rect x="286" width="3" height="237" fill="black"/>
<rect x="638" width="3" height="237" fill="black"/>
<rect x="924" width="3" height="237" fill="black"/>
<rect x="770" width="3" height="237" fill="black"/>
<rect x="44" width="3" height="237" fill="black"/>
<rect x="396" width="3" height="237" fill="black"/>
<rect x="220" width="3" height="237" fill="black"/>
<rect x="572" width="3" height="237" fill="black"/>
<rect x="858" width="3" height="237" fill="black"/>
<rect x="704" width="3" height="237" fill="black"/>
<rect x="990" width="3" height="237" fill="black"/>
<rect x="132" width="3" height="237" fill="black"/>
<rect x="484" width="3" height="237" fill="black"/>
<rect x="770" width="3" height="237" fill="black"/>
<rect x="308" width="3" height="237" fill="black"/>
<rect x="660" width="3" height="237" fill="black"/>
<rect x="946" width="3" height="237" fill="black"/>
<rect x="66" width="3" height="237" fill="black"/>
<rect x="418" width="3" height="237" fill="black"/>
<rect x="242" width="3" height="237" fill="black"/>
<rect x="594" width="3" height="237" fill="black"/>
<rect x="880" width="3" height="237" fill="black"/>
<rect x="726" width="3" height="237" fill="black"/>
<rect x="1012" width="3" height="237" fill="black"/>
<rect x="154" width="3" height="237" fill="black"/>
<rect x="506" width="3" height="237" fill="black"/>
<rect x="792" width="3" height="237" fill="black"/>
<rect x="330" width="3" height="237" fill="black"/>
<rect x="682" width="3" height="237" fill="black"/>
<rect x="968" width="3" height="237" fill="black"/>
</svg>
