<svg width="51" height="15" viewBox="0 0 51 15" fill="none" xmlns="http://www.w3.org/2000/svg">
<path d="M43.5 14.5C39.634 14.5 36.5 11.366 36.5 7.5C36.5 3.63401 39.634 0.5 43.5 0.5C47.366 0.5 50.5 3.63401 50.5 7.5C50.5 11.366 47.366 14.5 43.5 14.5Z" stroke="white"/>
<path d="M25.5 14.5C21.634 14.5 18.5 11.366 18.5 7.5C18.5 3.63401 21.634 0.5 25.5 0.5C29.366 0.5 32.5 3.63401 32.5 7.5C32.5 11.366 29.366 14.5 25.5 14.5Z" stroke="white"/>
<path d="M7.5 14.5C3.63401 14.5 0.5 11.366 0.500001 7.5C0.500001 3.63401 3.63401 0.5 7.5 0.5C11.366 0.5 14.5 3.63401 14.5 7.5C14.5 11.366 11.366 14.5 7.5 14.5Z" stroke="white"/>
</svg>
