<svg width="36" height="22" viewBox="0 0 36 22" fill="none" xmlns="http://www.w3.org/2000/svg">
<mask id="path-1-inside-1" fill="white">
<path d="M35.8092 19.28C35.7656 19.1861 35.7249 19.1081 35.6872 19.0457C35.0626 17.9208 33.869 16.54 32.1071 14.903L32.0699 14.8655L32.0513 14.8471L32.0324 14.8283H32.0135C31.2139 14.066 30.7075 13.5535 30.4955 13.2911C30.1075 12.7912 30.0205 12.2853 30.2326 11.7726C30.3824 11.3853 30.9452 10.5673 31.9196 9.31747C32.4321 8.65512 32.838 8.12427 33.1378 7.72433C35.2997 4.85015 36.237 3.01351 35.9495 2.21369L35.8378 2.02678C35.7627 1.91425 35.5691 1.81131 35.257 1.71743C34.9443 1.62375 34.5445 1.60826 34.0571 1.67069L28.659 1.70798C28.5716 1.67699 28.4467 1.67988 28.284 1.71743C28.1215 1.75499 28.0403 1.77383 28.0403 1.77383L27.9463 1.82077L27.8717 1.87716C27.8092 1.91445 27.7405 1.98004 27.6655 2.07379C27.5908 2.16721 27.5284 2.27684 27.4785 2.40178C26.8908 3.91377 26.2226 5.31955 25.4727 6.61904C25.0103 7.39391 24.5857 8.06545 24.1979 8.63405C23.8106 9.20245 23.4857 9.62123 23.2235 9.88968C22.9609 10.1584 22.7239 10.3737 22.511 10.5363C22.2985 10.699 22.1363 10.7677 22.024 10.7425C21.9114 10.7174 21.8054 10.6925 21.705 10.6675C21.5302 10.555 21.3895 10.402 21.2835 10.2083C21.177 10.0146 21.1053 9.77085 21.0679 9.4772C21.0306 9.18334 21.0085 8.93059 21.0022 8.71808C20.9964 8.50583 20.999 8.20561 21.0117 7.81827C21.0247 7.43074 21.0306 7.16853 21.0306 7.03106C21.0306 6.55614 21.0398 6.04072 21.0584 5.48466C21.0773 4.9286 21.0926 4.48802 21.1054 4.16344C21.1181 3.83854 21.124 3.49479 21.124 3.1324C21.124 2.77001 21.102 2.48581 21.0584 2.27953C21.0153 2.07352 20.9492 1.87355 20.8621 1.67969C20.7745 1.48602 20.6462 1.3362 20.4778 1.22985C20.3092 1.12363 20.0995 1.03933 19.85 0.976699C19.1876 0.826819 18.3442 0.745741 17.3193 0.733136C14.9952 0.708189 13.5019 0.858265 12.8396 1.18317C12.5772 1.32045 12.3397 1.50801 12.1274 1.74527C11.9024 2.02028 11.8711 2.17036 12.0335 2.19504C12.7833 2.30737 13.3142 2.57608 13.6266 3.0009L13.7392 3.22602C13.8268 3.38844 13.9142 3.67599 14.0018 4.08827C14.0891 4.50056 14.1455 4.95663 14.1703 5.45623C14.2327 6.36858 14.2327 7.14956 14.1703 7.79924C14.1078 8.44918 14.0487 8.95514 13.9923 9.31754C13.9359 9.67993 13.8516 9.97358 13.7392 10.1984C13.6266 10.4234 13.5517 10.5608 13.5142 10.6107C13.4767 10.6606 13.4454 10.6921 13.4206 10.7044C13.2582 10.7666 13.0893 10.7983 12.9144 10.7983C12.7394 10.7983 12.527 10.7108 12.2772 10.5357C12.0274 10.3607 11.7681 10.1203 11.4994 9.81412C11.2307 9.50786 10.9277 9.07988 10.5902 8.53012C10.2529 7.98037 9.90299 7.33062 9.5406 6.58089L9.24077 6.03717C9.05334 5.68739 8.7973 5.17807 8.4724 4.50968C8.1473 3.84103 7.85995 3.19424 7.61015 2.56945C7.51029 2.30704 7.36028 2.10727 7.16037 1.9698L7.06656 1.9134C7.00419 1.86351 6.90407 1.81053 6.76673 1.75407C6.62919 1.69767 6.48568 1.65723 6.33561 1.63235L1.19983 1.66964C0.675019 1.66964 0.31893 1.78853 0.131432 2.02599L0.0563938 2.13832C0.0189074 2.20088 0 2.30081 0 2.43834C0 2.57582 0.0374865 2.74454 0.112525 2.94431C0.862254 4.70637 1.67757 6.40574 2.55847 8.04267C3.43937 9.6796 4.20485 10.9982 4.85446 11.9973C5.50421 12.9971 6.16649 13.9406 6.84131 14.8276C7.51613 15.7149 7.96282 16.2835 8.18137 16.5333C8.40018 16.7835 8.57206 16.9706 8.69699 17.0955L9.16567 17.5453C9.46556 17.8453 9.90595 18.2045 10.487 18.623C11.0682 19.0418 11.7117 19.4541 12.4177 19.8606C13.1238 20.2663 13.9453 20.5975 14.8826 20.8536C15.8197 21.1099 16.7319 21.2128 17.6192 21.1632H19.7747C20.2119 21.1254 20.5431 20.988 20.7682 20.7507L20.8428 20.6568C20.893 20.5822 20.9399 20.4663 20.9832 20.3104C21.0271 20.1542 21.0489 19.9821 21.0489 19.795C21.0361 19.2577 21.077 18.7736 21.1705 18.3425C21.2639 17.9116 21.3704 17.5867 21.4895 17.3679C21.6085 17.1493 21.7428 16.9648 21.8923 16.8152C22.0421 16.6653 22.1489 16.5745 22.2115 16.5433C22.2737 16.5119 22.3234 16.4905 22.3609 16.4777C22.6608 16.3778 23.0137 16.4746 23.4202 16.7685C23.8264 17.0621 24.2074 17.4247 24.5637 17.8556C24.9199 18.287 25.3478 18.7709 25.8475 19.3081C26.3476 19.8455 26.7848 20.245 27.1596 20.5078L27.5343 20.7327C27.7846 20.8828 28.1095 21.0203 28.5094 21.1452C28.9086 21.2701 29.2584 21.3013 29.5588 21.2389L34.357 21.164C34.8316 21.164 35.2008 21.0855 35.4628 20.9295C35.7253 20.7734 35.8812 20.6013 35.9315 20.4141C35.9816 20.2268 35.9843 20.0142 35.941 19.7765C35.8965 19.5395 35.8527 19.3737 35.8092 19.28Z"/>
</mask>
<path d="M35.8092 19.28C35.7656 19.1861 35.7249 19.1081 35.6872 19.0457C35.0626 17.9208 33.869 16.54 32.1071 14.903L32.0699 14.8655L32.0513 14.8471L32.0324 14.8283H32.0135C31.2139 14.066 30.7075 13.5535 30.4955 13.2911C30.1075 12.7912 30.0205 12.2853 30.2326 11.7726C30.3824 11.3853 30.9452 10.5673 31.9196 9.31747C32.4321 8.65512 32.838 8.12427 33.1378 7.72433C35.2997 4.85015 36.237 3.01351 35.9495 2.21369L35.8378 2.02678C35.7627 1.91425 35.5691 1.81131 35.257 1.71743C34.9443 1.62375 34.5445 1.60826 34.0571 1.67069L28.659 1.70798C28.5716 1.67699 28.4467 1.67988 28.284 1.71743C28.1215 1.75499 28.0403 1.77383 28.0403 1.77383L27.9463 1.82077L27.8717 1.87716C27.8092 1.91445 27.7405 1.98004 27.6655 2.07379C27.5908 2.16721 27.5284 2.27684 27.4785 2.40178C26.8908 3.91377 26.2226 5.31955 25.4727 6.61904C25.0103 7.39391 24.5857 8.06545 24.1979 8.63405C23.8106 9.20245 23.4857 9.62123 23.2235 9.88968C22.9609 10.1584 22.7239 10.3737 22.511 10.5363C22.2985 10.699 22.1363 10.7677 22.024 10.7425C21.9114 10.7174 21.8054 10.6925 21.705 10.6675C21.5302 10.555 21.3895 10.402 21.2835 10.2083C21.177 10.0146 21.1053 9.77085 21.0679 9.4772C21.0306 9.18334 21.0085 8.93059 21.0022 8.71808C20.9964 8.50583 20.999 8.20561 21.0117 7.81827C21.0247 7.43074 21.0306 7.16853 21.0306 7.03106C21.0306 6.55614 21.0398 6.04072 21.0584 5.48466C21.0773 4.9286 21.0926 4.48802 21.1054 4.16344C21.1181 3.83854 21.124 3.49479 21.124 3.1324C21.124 2.77001 21.102 2.48581 21.0584 2.27953C21.0153 2.07352 20.9492 1.87355 20.8621 1.67969C20.7745 1.48602 20.6462 1.3362 20.4778 1.22985C20.3092 1.12363 20.0995 1.03933 19.85 0.976699C19.1876 0.826819 18.3442 0.745741 17.3193 0.733136C14.9952 0.708189 13.5019 0.858265 12.8396 1.18317C12.5772 1.32045 12.3397 1.50801 12.1274 1.74527C11.9024 2.02028 11.8711 2.17036 12.0335 2.19504C12.7833 2.30737 13.3142 2.57608 13.6266 3.0009L13.7392 3.22602C13.8268 3.38844 13.9142 3.67599 14.0018 4.08827C14.0891 4.50056 14.1455 4.95663 14.1703 5.45623C14.2327 6.36858 14.2327 7.14956 14.1703 7.79924C14.1078 8.44918 14.0487 8.95514 13.9923 9.31754C13.9359 9.67993 13.8516 9.97358 13.7392 10.1984C13.6266 10.4234 13.5517 10.5608 13.5142 10.6107C13.4767 10.6606 13.4454 10.6921 13.4206 10.7044C13.2582 10.7666 13.0893 10.7983 12.9144 10.7983C12.7394 10.7983 12.527 10.7108 12.2772 10.5357C12.0274 10.3607 11.7681 10.1203 11.4994 9.81412C11.2307 9.50786 10.9277 9.07988 10.5902 8.53012C10.2529 7.98037 9.90299 7.33062 9.5406 6.58089L9.24077 6.03717C9.05334 5.68739 8.7973 5.17807 8.4724 4.50968C8.1473 3.84103 7.85995 3.19424 7.61015 2.56945C7.51029 2.30704 7.36028 2.10727 7.16037 1.9698L7.06656 1.9134C7.00419 1.86351 6.90407 1.81053 6.76673 1.75407C6.62919 1.69767 6.48568 1.65723 6.33561 1.63235L1.19983 1.66964C0.675019 1.66964 0.31893 1.78853 0.131432 2.02599L0.0563938 2.13832C0.0189074 2.20088 0 2.30081 0 2.43834C0 2.57582 0.0374865 2.74454 0.112525 2.94431C0.862254 4.70637 1.67757 6.40574 2.55847 8.04267C3.43937 9.6796 4.20485 10.9982 4.85446 11.9973C5.50421 12.9971 6.16649 13.9406 6.84131 14.8276C7.51613 15.7149 7.96282 16.2835 8.18137 16.5333C8.40018 16.7835 8.57206 16.9706 8.69699 17.0955L9.16567 17.5453C9.46556 17.8453 9.90595 18.2045 10.487 18.623C11.0682 19.0418 11.7117 19.4541 12.4177 19.8606C13.1238 20.2663 13.9453 20.5975 14.8826 20.8536C15.8197 21.1099 16.7319 21.2128 17.6192 21.1632H19.7747C20.2119 21.1254 20.5431 20.988 20.7682 20.7507L20.8428 20.6568C20.893 20.5822 20.9399 20.4663 20.9832 20.3104C21.0271 20.1542 21.0489 19.9821 21.0489 19.795C21.0361 19.2577 21.077 18.7736 21.1705 18.3425C21.2639 17.9116 21.3704 17.5867 21.4895 17.3679C21.6085 17.1493 21.7428 16.9648 21.8923 16.8152C22.0421 16.6653 22.1489 16.5745 22.2115 16.5433C22.2737 16.5119 22.3234 16.4905 22.3609 16.4777C22.6608 16.3778 23.0137 16.4746 23.4202 16.7685C23.8264 17.0621 24.2074 17.4247 24.5637 17.8556C24.9199 18.287 25.3478 18.7709 25.8475 19.3081C26.3476 19.8455 26.7848 20.245 27.1596 20.5078L27.5343 20.7327C27.7846 20.8828 28.1095 21.0203 28.5094 21.1452C28.9086 21.2701 29.2584 21.3013 29.5588 21.2389L34.357 21.164C34.8316 21.164 35.2008 21.0855 35.4628 20.9295C35.7253 20.7734 35.8812 20.6013 35.9315 20.4141C35.9816 20.2268 35.9843 20.0142 35.941 19.7765C35.8965 19.5395 35.8527 19.3737 35.8092 19.28Z" stroke="black" stroke-width="3" mask="url(#path-1-inside-1)"/>
</svg>
